<?xml version="1.0" encoding="UTF-8"?>
<svg xmlns="http://www.w3.org/2000/svg" xmlns:xlink="http://www.w3.org/1999/xlink" width="48pt" height="48pt" viewBox="0 0 48 48" version="1.1">
<defs>
<linearGradient id="linear0" gradientUnits="userSpaceOnUse" x1="3.3355" y1="133.5777" x2="263.82" y2="133.5777" gradientTransform="matrix(0.179641,0,0,0.179641,0,0)">
<stop offset="0" style="stop-color:rgb(12.54902%,76.862745%,95.686275%);stop-opacity:1;"/>
<stop offset="1" style="stop-color:rgb(29.803922%,75.294118%,67.843137%);stop-opacity:1;"/>
</linearGradient>
</defs>
<g id="surface1">
<path style=" stroke:none;fill-rule:nonzero;fill:url(#linear0);" d="M 24 47.390625 C 11.136719 47.390625 0.609375 36.863281 0.609375 24 C 0.59375 11.121094 11.121094 0.59375 24 0.59375 C 36.863281 0.59375 47.390625 11.121094 47.390625 23.980469 C 47.390625 36.863281 36.863281 47.390625 24 47.390625 Z M 24 47.390625 "/>
<path style=" stroke:none;fill-rule:nonzero;fill:rgb(100%,100%,100%);fill-opacity:1;" d="M 35.40625 32.226562 C 35.28125 32.40625 35.136719 32.585938 35.011719 32.785156 C 32.929688 35.875 30 37.671875 26.371094 38.316406 C 23.605469 38.820312 20.855469 38.695312 18.214844 37.671875 C 13.992188 36.019531 11.28125 32.964844 9.988281 28.632812 C 9.359375 26.480469 9.160156 24.289062 9.449219 22.058594 C 9.878906 18.699219 11.171875 15.753906 13.632812 13.367188 C 15.59375 11.480469 17.929688 10.347656 20.585938 9.753906 C 22.1875 9.394531 23.820312 9.324219 25.417969 9.46875 C 30.199219 9.863281 34.007812 11.980469 36.59375 16.097656 C 37.652344 17.785156 38.28125 19.671875 38.496094 21.664062 C 38.621094 22.722656 38.660156 23.785156 38.660156 24.863281 C 38.675781 28.8125 38.660156 32.765625 38.660156 36.71875 C 38.660156 37.148438 38.640625 37.582031 38.621094 37.976562 C 37.886719 38.28125 37.277344 38.316406 35.839844 38.121094 C 35.800781 37.886719 35.730469 37.617188 35.730469 37.367188 C 35.710938 35.980469 35.730469 34.597656 35.730469 33.214844 C 35.730469 32.910156 35.675781 32.605469 35.640625 32.300781 C 35.570312 32.28125 35.496094 32.246094 35.40625 32.226562 Z M 12.46875 23.875 C 12.449219 24.988281 12.59375 26.082031 12.863281 27.160156 C 13.777344 30.84375 15.898438 33.539062 19.417969 35.03125 C 22.007812 36.125 24.699219 36.214844 27.414062 35.480469 C 30.699219 34.582031 33.109375 32.570312 34.507812 29.496094 C 36.214844 25.777344 36.179688 21.988281 34.402344 18.289062 C 32.800781 14.964844 30.070312 12.988281 26.515625 12.25 C 24.449219 11.820312 22.347656 11.910156 20.316406 12.609375 C 18.25 13.328125 16.492188 14.441406 15.125 16.167969 C 13.367188 18.449219 12.558594 21.035156 12.46875 23.875 Z M 12.46875 23.875 "/>
</g>
</svg>
